<?xml version="1.0" encoding="UTF-8"?><svg id="a" xmlns="http://www.w3.org/2000/svg" viewBox="0 0 1582.46 457"><defs><style>.b{fill:#1b3f85;}.c{fill:#3da2db;}</style></defs><g><g><path class="b" d="M541.5,197.86V118.36h-31.48v-22.99h91.8v22.99h-31.33v79.5h-28.99Z"/><path class="b" d="M608.26,197.86V118.51h26.5v23.13l-3.95-6.59c2.34-5.95,6.15-10.42,11.42-13.4,5.27-2.98,11.66-4.47,19.18-4.47v25.04c-1.27-.19-2.37-.32-3.29-.37-.93-.05-1.93-.07-3-.07-5.66,0-10.25,1.54-13.76,4.61-3.51,3.07-5.27,8.08-5.27,15.01v36.46h-27.82Z"/><path class="b" d="M691.57,199.18c-6.35,0-11.71-1.08-16.11-3.22-4.39-2.15-7.74-5.07-10.03-8.78-2.3-3.71-3.44-7.86-3.44-12.45,0-4.88,1.24-9.1,3.73-12.66,2.49-3.56,6.32-6.3,11.49-8.2,5.17-1.9,11.86-2.85,20.06-2.85h18.74v14.49h-14.93c-4.49,0-7.64,.73-9.44,2.2-1.81,1.46-2.71,3.42-2.71,5.86s.93,4.39,2.78,5.86c1.85,1.46,4.39,2.2,7.61,2.2,3.02,0,5.78-.75,8.27-2.27,2.49-1.51,4.32-3.83,5.49-6.95l3.81,10.25c-1.46,5.47-4.32,9.59-8.56,12.37-4.25,2.78-9.83,4.17-16.76,4.17Zm23.43-1.32v-14.79l-1.9-3.66v-27.23c0-4.39-1.34-7.78-4.03-10.18-2.69-2.39-6.95-3.59-12.81-3.59-3.81,0-7.66,.61-11.57,1.83-3.91,1.22-7.22,2.91-9.96,5.05l-9.37-18.89c4.49-2.93,9.88-5.2,16.18-6.81,6.29-1.61,12.57-2.42,18.81-2.42,12.88,0,22.86,2.95,29.94,8.86,7.08,5.91,10.61,15.15,10.61,27.74v44.07h-25.91Z"/><path class="b" d="M757.01,197.86V89.23h27.82v42.61l-1.46,26.21,.15,26.21v13.62h-26.5Zm49.93,1.32c-7.13,0-13.06-1.46-17.79-4.39-4.74-2.93-8.27-7.42-10.62-13.47-2.34-6.05-3.51-13.81-3.51-23.28s1.24-16.93,3.73-22.99c2.49-6.05,6.12-10.54,10.91-13.47,4.78-2.93,10.54-4.39,17.28-4.39,7.22,0,13.79,1.66,19.69,4.98,5.9,3.32,10.59,8.03,14.06,14.13,3.46,6.1,5.2,13.35,5.2,21.74s-1.73,15.79-5.2,21.89c-3.47,6.1-8.15,10.83-14.06,14.2-5.91,3.37-12.47,5.05-19.69,5.05Zm-5.86-22.11c3.12,0,5.93-.73,8.42-2.2,2.49-1.46,4.49-3.64,6-6.52,1.51-2.88,2.27-6.32,2.27-10.32s-.76-7.39-2.27-10.18c-1.51-2.78-3.51-4.9-6-6.37-2.49-1.46-5.3-2.2-8.42-2.2s-5.93,.73-8.42,2.2c-2.49,1.46-4.49,3.59-6,6.37-1.51,2.78-2.27,6.17-2.27,10.18s.75,7.44,2.27,10.32c1.51,2.88,3.51,5.05,6,6.52,2.49,1.46,5.29,2.2,8.42,2.2Z"/><path class="b" d="M880.58,199.18c-6.35,0-11.71-1.08-16.11-3.22-4.39-2.15-7.74-5.07-10.03-8.78-2.3-3.71-3.44-7.86-3.44-12.45,0-4.88,1.24-9.1,3.73-12.66,2.49-3.56,6.32-6.3,11.49-8.2,5.17-1.9,11.86-2.85,20.06-2.85h18.74v14.49h-14.93c-4.49,0-7.64,.73-9.44,2.2-1.81,1.46-2.71,3.42-2.71,5.86s.93,4.39,2.78,5.86c1.85,1.46,4.39,2.2,7.61,2.2,3.02,0,5.78-.75,8.27-2.27,2.49-1.51,4.32-3.83,5.49-6.95l3.81,10.25c-1.46,5.47-4.32,9.59-8.56,12.37-4.25,2.78-9.83,4.17-16.76,4.17Zm23.43-1.32v-14.79l-1.9-3.66v-27.23c0-4.39-1.34-7.78-4.03-10.18-2.69-2.39-6.95-3.59-12.81-3.59-3.81,0-7.66,.61-11.57,1.83-3.91,1.22-7.22,2.91-9.96,5.05l-9.37-18.89c4.49-2.93,9.88-5.2,16.18-6.81,6.29-1.61,12.57-2.42,18.81-2.42,12.88,0,22.86,2.95,29.94,8.86,7.08,5.91,10.61,15.15,10.61,27.74v44.07h-25.91Z"/><path class="b" d="M942.66,227.59c-3.71,0-7.25-.37-10.61-1.1-3.37-.73-6.27-1.73-8.71-3l7.03-19.77c2.54,1.56,5.42,2.34,8.64,2.34,2.44,0,4.42-.83,5.93-2.49,1.51-1.66,2.27-4.3,2.27-7.91V118.51h27.82v77.3c0,9.66-2.83,17.37-8.49,23.13-5.66,5.76-13.62,8.64-23.86,8.64Zm18.45-117.86c-5.08,0-9.18-1.41-12.3-4.25-3.12-2.83-4.68-6.34-4.68-10.54s1.56-7.71,4.68-10.54c3.12-2.83,7.22-4.25,12.3-4.25s9.17,1.34,12.3,4.03c3.12,2.69,4.68,6.13,4.68,10.32s-1.54,8.03-4.61,10.91c-3.07,2.88-7.2,4.32-12.37,4.32Z"/><path class="b" d="M1031.24,199.18c-8.69,0-16.4-1.76-23.13-5.27-6.73-3.51-12.03-8.37-15.88-14.57-3.86-6.2-5.78-13.3-5.78-21.3s1.93-15.08,5.78-21.23c3.85-6.15,9.15-10.96,15.88-14.42,6.73-3.46,14.44-5.2,23.13-5.2s16.42,1.73,23.21,5.2c6.78,3.47,12.08,8.27,15.89,14.42,3.81,6.15,5.71,13.23,5.71,21.23s-1.9,15.11-5.71,21.3c-3.81,6.2-9.1,11.05-15.89,14.57-6.78,3.51-14.52,5.27-23.21,5.27Zm0-22.11c3.22,0,6.08-.73,8.56-2.2,2.49-1.46,4.47-3.64,5.93-6.52,1.46-2.88,2.2-6.32,2.2-10.32s-.73-7.39-2.2-10.18c-1.46-2.78-3.44-4.9-5.93-6.37-2.49-1.46-5.34-2.2-8.56-2.2s-5.93,.73-8.42,2.2c-2.49,1.46-4.49,3.59-6,6.37-1.51,2.78-2.27,6.17-2.27,10.18s.75,7.44,2.27,10.32c1.51,2.88,3.51,5.05,6,6.52,2.49,1.46,5.29,2.2,8.42,2.2Z"/><path class="b" d="M1181.01,199.91c-8.1,0-15.59-1.29-22.47-3.88-6.88-2.59-12.84-6.27-17.86-11.05-5.03-4.78-8.96-10.42-11.79-16.91-2.83-6.49-4.25-13.64-4.25-21.45s1.41-14.96,4.25-21.45c2.83-6.49,6.76-12.13,11.79-16.91,5.03-4.78,10.98-8.47,17.86-11.05,6.88-2.59,14.37-3.88,22.47-3.88,9.47,0,17.93,1.66,25.4,4.98,7.47,3.32,13.69,8.1,18.67,14.35l-18.45,16.69c-3.32-3.9-6.95-6.88-10.91-8.93-3.95-2.05-8.37-3.07-13.25-3.07-4.2,0-8.05,.68-11.57,2.05-3.51,1.37-6.52,3.34-9,5.93-2.49,2.59-4.44,5.69-5.86,9.3-1.42,3.61-2.12,7.61-2.12,12.01s.71,8.4,2.12,12.01c1.41,3.61,3.37,6.71,5.86,9.3,2.49,2.59,5.49,4.56,9,5.93,3.51,1.37,7.37,2.05,11.57,2.05,4.88,0,9.3-1.03,13.25-3.07,3.95-2.05,7.59-5.03,10.91-8.93l18.45,16.69c-4.98,6.15-11.2,10.91-18.67,14.28-7.47,3.37-15.94,5.05-25.4,5.05Z"/><path class="b" d="M1266.81,199.18c-6.44,0-12.22-1.27-17.35-3.81-5.12-2.54-9.13-6.52-12.01-11.93-2.88-5.42-4.32-12.27-4.32-20.57v-44.36h27.82v39.82c0,6.15,1.15,10.54,3.44,13.18,2.29,2.64,5.54,3.95,9.74,3.95,2.73,0,5.22-.63,7.47-1.9,2.24-1.27,4.05-3.29,5.42-6.08,1.37-2.78,2.05-6.37,2.05-10.76v-38.21h27.82v79.35h-26.5v-22.4l5.12,6.3c-2.73,5.86-6.69,10.23-11.86,13.1-5.17,2.88-10.79,4.32-16.84,4.32Z"/><path class="b" d="M1362.12,199.18c-6.73,0-13.3-.78-19.69-2.34-6.39-1.56-11.54-3.51-15.45-5.86l8.34-19.03c3.71,2.25,8.05,4.03,13.03,5.34,4.98,1.32,9.86,1.98,14.64,1.98s7.93-.49,9.74-1.46c1.81-.97,2.71-2.29,2.71-3.95,0-1.56-.86-2.71-2.56-3.44-1.71-.73-3.95-1.29-6.73-1.68-2.78-.39-5.83-.83-9.15-1.32-3.32-.49-6.66-1.15-10.03-1.98-3.37-.83-6.44-2.1-9.22-3.81-2.78-1.71-5-4.03-6.66-6.95-1.66-2.93-2.49-6.64-2.49-11.13,0-5.07,1.49-9.59,4.47-13.54,2.98-3.95,7.34-7.08,13.1-9.37,5.76-2.29,12.79-3.44,21.08-3.44,5.56,0,11.2,.56,16.91,1.68,5.71,1.12,10.52,2.81,14.42,5.05l-8.34,18.89c-3.91-2.24-7.81-3.78-11.71-4.61-3.91-.83-7.61-1.24-11.13-1.24-4.68,0-7.98,.54-9.88,1.61-1.9,1.08-2.85,2.39-2.85,3.95s.83,2.76,2.49,3.59c1.66,.83,3.88,1.46,6.66,1.9,2.78,.44,5.83,.88,9.15,1.32,3.32,.44,6.66,1.1,10.03,1.98,3.37,.88,6.44,2.17,9.22,3.88,2.78,1.71,5,4,6.66,6.88,1.66,2.88,2.49,6.57,2.49,11.05,0,4.88-1.49,9.27-4.47,13.18-2.98,3.9-7.37,7.03-13.18,9.37-5.81,2.34-13.01,3.51-21.6,3.51Z"/><path class="b" d="M1452.45,199.18c-8.78,0-16.62-1.76-23.5-5.27-6.88-3.51-12.28-8.37-16.18-14.57-3.91-6.2-5.86-13.3-5.86-21.3s1.95-15.08,5.86-21.23c3.9-6.15,9.3-10.96,16.18-14.42,6.88-3.46,14.71-5.2,23.5-5.2s16.74,1.9,23.28,5.71c6.54,3.81,11.18,9.18,13.91,16.11l-21.52,10.98c-1.86-3.71-4.15-6.42-6.88-8.13-2.73-1.71-5.71-2.56-8.93-2.56s-6.15,.73-8.78,2.2c-2.64,1.46-4.71,3.59-6.22,6.37-1.51,2.78-2.27,6.17-2.27,10.18s.75,7.56,2.27,10.4c1.51,2.83,3.59,4.98,6.22,6.44,2.64,1.46,5.56,2.2,8.78,2.2s6.2-.85,8.93-2.56c2.73-1.71,5.03-4.42,6.88-8.13l21.52,10.98c-2.73,6.93-7.37,12.3-13.91,16.1-6.54,3.81-14.3,5.71-23.28,5.71Z"/><path class="b" d="M1537.66,199.18c-8.69,0-16.4-1.76-23.13-5.27-6.73-3.51-12.03-8.37-15.88-14.57-3.86-6.2-5.78-13.3-5.78-21.3s1.93-15.08,5.78-21.23c3.85-6.15,9.15-10.96,15.88-14.42,6.73-3.46,14.44-5.2,23.13-5.2s16.42,1.73,23.21,5.2c6.78,3.47,12.08,8.27,15.89,14.42,3.81,6.15,5.71,13.23,5.71,21.23s-1.9,15.11-5.71,21.3c-3.81,6.2-9.1,11.05-15.89,14.57-6.78,3.51-14.52,5.27-23.21,5.27Zm0-22.11c3.22,0,6.08-.73,8.56-2.2,2.49-1.46,4.47-3.64,5.93-6.52,1.46-2.88,2.2-6.32,2.2-10.32s-.73-7.39-2.2-10.18c-1.46-2.78-3.44-4.9-5.93-6.37-2.49-1.46-5.34-2.2-8.56-2.2s-5.93,.73-8.42,2.2c-2.49,1.46-4.49,3.59-6,6.37-1.51,2.78-2.27,6.17-2.27,10.18s.75,7.44,2.27,10.32c1.51,2.88,3.51,5.05,6,6.52,2.49,1.46,5.29,2.2,8.42,2.2Z"/></g><g><path class="c" d="M563.83,265.7c.15,1.7,.22,3.11,.22,4.3,0,14.74-10.52,25.78-25.19,25.78s-26.37-11.33-26.37-25.93,11.48-25.93,26.07-25.93c10.44,0,20.3,4.89,23.85,14.96l-9.04,3.19c-3.63-6.96-9.41-8.67-14.82-8.67-8.89,0-15.85,7.11-15.85,16.45s7.19,16.52,16.45,16.52c7.56,0,13.19-4.44,14.89-11.48h-17.41v-9.19h27.19Z"/><path class="c" d="M607.09,278.82h-28.15c.96,5.33,4.74,8.59,9.26,8.59,2.89,0,6.52-.37,9.19-4.89l8.74,1.85c-3.26,7.7-9.85,11.41-17.93,11.41-10.44,0-18.96-7.93-18.96-19.56s8.52-19.63,19.11-19.63c9.85,0,18.37,7.63,18.74,18.89v3.33Zm-27.85-6.89h17.85c-1.26-4.74-4.82-6.82-8.74-6.82-3.7,0-7.93,2.22-9.11,6.82Z"/><path class="c" d="M640.13,257.48l-.52,9.41h-2.15c-9.04,0-13.19,5.56-13.19,15.85v11.93h-9.78v-36.96h9.78v6.74c2.96-4.3,7.26-7.26,13.26-7.26,.96,0,1.7,0,2.59,.3Z"/><path class="c" d="M680.8,278.82h-28.15c.96,5.33,4.74,8.59,9.26,8.59,2.89,0,6.52-.37,9.19-4.89l8.74,1.85c-3.26,7.7-9.85,11.41-17.93,11.41-10.44,0-18.96-7.93-18.96-19.56s8.52-19.63,19.11-19.63c9.85,0,18.37,7.63,18.74,18.89v3.33Zm-27.85-6.89h17.85c-1.26-4.74-4.82-6.82-8.74-6.82-3.7,0-7.93,2.22-9.11,6.82Z"/><path class="c" d="M724.43,272.15v22.52h-9.78v-20.45c0-5.19-2.96-8.67-7.48-8.67-5.56,0-9.19,3.7-9.19,12.74v16.37h-9.78v-36.96h9.78v3.33c2.89-2.89,6.74-4.44,11.63-4.44,8.89,0,14.81,6.37,14.81,15.56Z"/><path class="c" d="M760.14,279.63l9.04,2.3c-2.07,8.44-9.7,13.85-18.52,13.85-10.81,0-19.78-7.93-19.78-19.56s8.96-19.63,19.78-19.63c8.59,0,16.08,5.33,18.52,13.63l-9.41,2.67c-1.33-5.19-4.82-7.33-9.11-7.33-6.15,0-10.3,4.37-10.3,10.67s4.15,10.59,10.3,10.59c4.3,0,7.78-2.07,9.48-7.19Z"/><path class="c" d="M787.92,246.67c0,3.26-2.52,5.7-5.93,5.7s-5.93-2.44-5.93-5.7,2.44-5.85,5.93-5.85,5.93,2.74,5.93,5.85Zm-10.81,48v-36.96h9.78v36.96h-9.78Z"/><path class="c" d="M834.95,294.67h-9.78v-2.89c-3.11,2.52-7.19,4-12.22,4-9.41,0-18.15-7.93-18.15-19.56s8.74-19.63,18.15-19.63c5.04,0,9.11,1.48,12.22,4.07v-2.96h9.78v36.96Zm-9.78-18.45c0-6.81-5.26-11.11-10.52-11.11-5.93,0-10.37,4.3-10.37,11.11s4.44,11.04,10.37,11.04c5.26,0,10.52-4.22,10.52-11.04Z"/><path class="c" d="M895.03,294.67l-16.37-18.22h-5.26v18.22h-10.07v-49.63h23.78c10.67,0,17.78,6.3,17.78,15.7,0,8.3-5.56,14.22-14.22,15.48l16.67,18.45h-12.3Zm-7.93-27.33c4.67,0,7.78-2.67,7.78-6.59s-3.11-6.59-7.78-6.59h-13.7v13.19h13.7Z"/><path class="c" d="M946.66,278.82h-28.15c.96,5.33,4.74,8.59,9.26,8.59,2.89,0,6.52-.37,9.19-4.89l8.74,1.85c-3.26,7.7-9.85,11.41-17.93,11.41-10.44,0-18.96-7.93-18.96-19.56s8.52-19.63,19.11-19.63c9.85,0,18.37,7.63,18.74,18.89v3.33Zm-27.85-6.89h17.85c-1.26-4.74-4.82-6.82-8.74-6.82-3.7,0-7.93,2.22-9.11,6.82Z"/><path class="c" d="M990.14,291.11c0,11.33-7.85,17.63-19.78,17.63-8.59,0-14.81-3.04-18-8.15l7.93-6c2.89,3.63,5.26,5.33,10.07,5.33,6.22,0,10.3-3.85,10.3-10.3v-.59c-2.74,2.22-6.52,3.41-11.63,3.41-9.26,0-17.93-7.85-17.93-18s8.67-17.85,17.93-17.85c5.11,0,8.89,1.26,11.63,3.41v-2.3h9.41l.07,33.41Zm-9.48-16.67c0-5.78-4.74-9.63-9.93-9.63-5.85,0-10.22,3.85-10.22,9.63s4.37,9.63,10.22,9.63c5.18,0,9.93-3.85,9.93-9.63Z"/><path class="c" d="M1011.85,246.67c0,3.26-2.52,5.7-5.93,5.7s-5.93-2.44-5.93-5.7,2.44-5.85,5.93-5.85,5.93,2.74,5.93,5.85Zm-10.81,48v-36.96h9.78v36.96h-9.78Z"/><path class="c" d="M1058.81,276.22c0,11.63-9.11,19.41-19.93,19.41s-20.15-7.78-20.15-19.41,9.11-19.41,20.15-19.41,19.93,7.78,19.93,19.41Zm-9.48,0c0-6.89-5.33-11.04-10.44-11.04s-10.67,4.15-10.67,11.04,5.33,11.04,10.67,11.04,10.44-4.15,10.44-11.04Z"/><path class="c" d="M1102.45,272.15v22.52h-9.78v-20.45c0-5.19-2.96-8.67-7.48-8.67-5.56,0-9.19,3.7-9.19,12.74v16.37h-9.78v-36.96h9.78v3.33c2.89-2.89,6.74-4.44,11.63-4.44,8.89,0,14.81,6.37,14.81,15.56Z"/><path class="c" d="M1149.04,294.67h-9.78v-2.89c-3.11,2.52-7.19,4-12.22,4-9.41,0-18.15-7.93-18.15-19.56s8.74-19.63,18.15-19.63c5.04,0,9.11,1.48,12.22,4.07v-2.96h9.78v36.96Zm-9.78-18.45c0-6.81-5.26-11.11-10.52-11.11-5.93,0-10.37,4.3-10.37,11.11s4.44,11.04,10.37,11.04c5.26,0,10.52-4.22,10.52-11.04Z"/><path class="c" d="M1159.41,294.67v-53.34h9.78v53.34h-9.78Z"/><path class="c" d="M1234.75,294.67h-9.78v-2.89c-3.11,2.52-7.19,4-12.22,4-9.41,0-18.15-7.93-18.15-19.56s8.74-19.63,18.15-19.63c5.04,0,9.11,1.48,12.22,4.07v-19.33h9.78v53.34Zm-9.78-18.45c0-6.81-5.26-11.11-10.52-11.11-5.93,0-10.37,4.3-10.37,11.11s4.44,11.04,10.37,11.04c5.26,0,10.52-4.22,10.52-11.04Z"/><path class="c" d="M1280.01,278.82h-28.15c.96,5.33,4.74,8.59,9.26,8.59,2.89,0,6.52-.37,9.19-4.89l8.74,1.85c-3.26,7.7-9.85,11.41-17.93,11.41-10.44,0-18.96-7.93-18.96-19.56s8.52-19.63,19.11-19.63c9.85,0,18.37,7.63,18.74,18.89v3.33Zm-27.85-6.89h17.85c-1.26-4.74-4.82-6.82-8.74-6.82-3.7,0-7.93,2.22-9.11,6.82Z"/><path class="c" d="M1328.31,254.15v40.52h-10.08v-40.52h-16.52v-9.11h43.11v9.11h-16.52Z"/><path class="c" d="M1374.9,257.48l-.52,9.41h-2.15c-9.04,0-13.19,5.56-13.19,15.85v11.93h-9.78v-36.96h9.78v6.74c2.96-4.3,7.26-7.26,13.26-7.26,.96,0,1.7,0,2.59,.3Z"/><path class="c" d="M1417.86,294.67h-9.78v-2.89c-3.11,2.52-7.19,4-12.22,4-9.41,0-18.15-7.93-18.15-19.56s8.74-19.63,18.15-19.63c5.04,0,9.11,1.48,12.22,4.07v-2.96h9.78v36.96Zm-9.78-18.45c0-6.81-5.26-11.11-10.52-11.11-5.93,0-10.37,4.3-10.37,11.11s4.44,11.04,10.37,11.04c5.26,0,10.52-4.22,10.52-11.04Z"/><path class="c" d="M1468.38,276.22c0,11.63-8.74,19.56-18.15,19.56-5.04,0-9.11-1.48-12.22-4v2.89h-9.78v-53.34h9.78v19.33c3.11-2.59,7.19-4.07,12.22-4.07,9.41,0,18.15,8,18.15,19.63Zm-9.48,0c0-6.81-4.44-11.11-10.37-11.11-5.26,0-10.52,4.3-10.52,11.11s5.26,11.04,10.52,11.04c5.93,0,10.37-4.22,10.37-11.04Z"/><path class="c" d="M1512.98,294.67h-9.78v-2.89c-3.11,2.52-7.19,4-12.22,4-9.41,0-18.15-7.93-18.15-19.56s8.74-19.63,18.15-19.63c5.04,0,9.11,1.48,12.22,4.07v-2.96h9.78v36.96Zm-9.78-18.45c0-6.81-5.26-11.11-10.52-11.11-5.93,0-10.37,4.3-10.37,11.11s4.44,11.04,10.37,11.04c5.26,0,10.52-4.22,10.52-11.04Z"/><path class="c" d="M1518.02,298.07c1.26,.44,2.44,.74,3.33,.74,2.07,0,3.48-1.18,3.48-2.89v-38.22h9.78v39.56c0,6.44-4.3,10.74-10.81,10.74-3.11,0-5.56-.67-7.56-1.41l1.78-8.52Zm17.48-51.41c0,3.26-2.52,5.7-5.93,5.7s-5.93-2.44-5.93-5.7,2.44-5.85,5.93-5.85,5.93,2.74,5.93,5.85Z"/><path class="c" d="M1582.46,276.22c0,11.63-9.11,19.41-19.93,19.41s-20.15-7.78-20.15-19.41,9.11-19.41,20.15-19.41,19.93,7.78,19.93,19.41Zm-9.48,0c0-6.89-5.33-11.04-10.44-11.04s-10.67,4.15-10.67,11.04,5.33,11.04,10.67,11.04,10.44-4.15,10.44-11.04Z"/><path class="c" d="M529.15,376.85h-10.03l5.46-12.69-14.13-33.03h10.03l9.01,21.77,9.42-21.77h10.03l-19.79,45.72Z"/><path class="c" d="M592.27,319.53c10.51,0,16.92,6.21,16.92,15.35s-6.41,15.42-16.92,15.42h-12.01v14.94h-9.28v-45.72h21.29Zm0,22.38c4.98,0,7.71-2.8,7.71-7.03s-2.73-6.96-7.71-6.96h-12.01v13.99h12.01Z"/><path class="c" d="M639.97,330.99l-.48,8.67h-1.98c-8.33,0-12.15,5.12-12.15,14.6v10.99h-9.01v-34.05h9.01v6.21c2.73-3.96,6.69-6.69,12.22-6.69,.89,0,1.57,0,2.39,.27Z"/><path class="c" d="M679.49,348.26c0,10.71-8.39,17.88-18.36,17.88s-18.56-7.17-18.56-17.88,8.39-17.88,18.56-17.88,18.36,7.17,18.36,17.88Zm-8.73,0c0-6.35-4.91-10.17-9.62-10.17s-9.83,3.82-9.83,10.17,4.91,10.17,9.83,10.17,9.62-3.82,9.62-10.17Z"/><path class="c" d="M742.34,343.96v21.29h-8.94v-19.45c0-4.57-2.93-7.37-6.69-7.37-4.78,0-7.92,3.28-7.92,10.44v16.38h-9.01v-19.45c0-4.57-2.93-7.37-6.69-7.37-4.78,0-7.78,3.28-7.78,10.44v16.38h-9.01v-34.05h9.01v2.8c2.39-2.39,5.73-3.82,10.17-3.82s8.73,1.98,11.19,5.6c2.8-3.48,6.96-5.6,12.42-5.6,7.1,0,13.24,5.46,13.24,13.78Z"/><path class="c" d="M785.26,348.26c0,10.71-8.39,17.88-18.36,17.88s-18.56-7.17-18.56-17.88,8.39-17.88,18.56-17.88,18.36,7.17,18.36,17.88Zm-8.73,0c0-6.35-4.91-10.17-9.62-10.17s-9.83,3.82-9.83,10.17,4.91,10.17,9.83,10.17,9.62-3.82,9.62-10.17Z"/><path class="c" d="M816.31,351.4l8.33,2.12c-1.91,7.78-8.94,12.76-17.06,12.76-9.96,0-18.22-7.3-18.22-18.02s8.26-18.08,18.22-18.08c7.92,0,14.81,4.91,17.06,12.56l-8.67,2.46c-1.23-4.78-4.44-6.76-8.39-6.76-5.66,0-9.49,4.03-9.49,9.83s3.82,9.76,9.49,9.76c3.96,0,7.17-1.91,8.73-6.62Z"/><path class="c" d="M841.9,321.03c0,3-2.32,5.25-5.46,5.25s-5.46-2.25-5.46-5.25,2.25-5.39,5.46-5.39,5.46,2.52,5.46,5.39Zm-9.96,44.22v-34.05h9.01v34.05h-9.01Z"/><path class="c" d="M885.17,348.26c0,10.71-8.39,17.88-18.36,17.88s-18.56-7.17-18.56-17.88,8.39-17.88,18.56-17.88,18.36,7.17,18.36,17.88Zm-8.73,0c0-6.35-4.91-10.17-9.62-10.17s-9.83,3.82-9.83,10.17,4.91,10.17,9.83,10.17,9.62-3.82,9.62-10.17Zm-13.17-21.7l4.5-9.83h10.58l-7.44,9.83h-7.64Z"/><path class="c" d="M925.36,344.5v20.75h-9.01v-18.83c0-4.78-2.73-7.98-6.89-7.98-5.12,0-8.46,3.41-8.46,11.74v15.08h-9.01v-34.05h9.01v3.07c2.66-2.66,6.21-4.09,10.71-4.09,8.19,0,13.65,5.87,13.65,14.33Z"/><path class="c" d="M984.87,365.25h-9.01v-2.66c-2.87,2.32-6.62,3.69-11.26,3.69-8.67,0-16.72-7.3-16.72-18.02s8.05-18.08,16.72-18.08c4.64,0,8.39,1.36,11.26,3.75v-17.81h9.01v49.13Zm-9.01-16.99c0-6.28-4.85-10.24-9.69-10.24-5.46,0-9.55,3.96-9.55,10.24s4.09,10.17,9.55,10.17c4.85,0,9.69-3.89,9.69-10.17Z"/><path class="c" d="M1026.56,350.65h-25.93c.89,4.91,4.37,7.92,8.53,7.92,2.66,0,6.01-.34,8.46-4.5l8.05,1.71c-3,7.1-9.08,10.51-16.51,10.51-9.62,0-17.47-7.3-17.47-18.02s7.85-18.08,17.61-18.08c9.08,0,16.92,7.03,17.27,17.4v3.07Zm-25.66-6.35h16.45c-1.16-4.37-4.44-6.28-8.05-6.28-3.41,0-7.3,2.05-8.39,6.28Z"/><path class="c" d="M1033.39,365.25v-49.13h9.01v49.13h-9.01Z"/><path class="c" d="M1103.27,365.25h-34.73v-45.72h34.6v8.39h-25.32v10.3h23.34v8.26h-23.34v10.37h25.45v8.39Z"/><path class="c" d="M1167.83,343.96v21.29h-8.94v-19.45c0-4.57-2.93-7.37-6.69-7.37-4.78,0-7.92,3.28-7.92,10.44v16.38h-9.01v-19.45c0-4.57-2.93-7.37-6.69-7.37-4.78,0-7.78,3.28-7.78,10.44v16.38h-9.01v-34.05h9.01v2.8c2.39-2.39,5.73-3.82,10.17-3.82s8.73,1.98,11.19,5.6c2.8-3.48,6.96-5.6,12.42-5.6,7.1,0,13.24,5.46,13.24,13.78Z"/><path class="c" d="M1213.55,348.26c0,10.71-8.05,18.02-16.72,18.02-4.64,0-8.39-1.36-11.26-3.69v14.26h-9.01v-45.65h9.01v2.73c2.87-2.39,6.62-3.75,11.26-3.75,8.67,0,16.72,7.37,16.72,18.08Zm-8.73,0c0-6.28-4.09-10.24-9.55-10.24-4.85,0-9.69,3.96-9.69,10.24s4.85,10.17,9.69,10.17c5.46,0,9.55-3.89,9.55-10.17Z"/><path class="c" d="M1220.37,365.25v-49.13h9.01v49.13h-9.01Z"/><path class="c" d="M1271.07,350.65h-25.93c.89,4.91,4.37,7.92,8.53,7.92,2.66,0,6.01-.34,8.46-4.5l8.05,1.71c-3,7.1-9.08,10.51-16.51,10.51-9.62,0-17.47-7.3-17.47-18.02s7.85-18.08,17.61-18.08c9.08,0,16.92,7.03,17.27,17.4v3.07Zm-25.66-6.35h16.45c-1.16-4.37-4.44-6.28-8.05-6.28-3.41,0-7.3,2.05-8.39,6.28Z"/><path class="c" d="M1312.09,348.26c0,10.71-8.39,17.88-18.36,17.88s-18.56-7.17-18.56-17.88,8.39-17.88,18.56-17.88,18.36,7.17,18.36,17.88Zm-8.73,0c0-6.35-4.91-10.17-9.62-10.17s-9.83,3.82-9.83,10.17,4.91,10.17,9.83,10.17,9.62-3.82,9.62-10.17Z"/><path class="c" d="M1356.79,347.64c0,6.35-4.91,11.26-11.67,11.26s-11.67-4.91-11.67-11.26c0-6.01,4.91-11.33,11.67-11.33s11.67,5.32,11.67,11.33Z"/><path class="c" d="M1416.36,346.14l9.01,1.84c-2.25,11.74-11.53,18.29-22.52,18.29-13.44,0-24.02-10.44-24.02-23.88s10.58-23.88,24.02-23.88c10.99,0,20.2,6.62,22.52,17.61l-9.01,2.52c-1.71-7.92-7.17-11.4-13.51-11.4-8.19,0-14.67,6.48-14.67,15.15s6.48,15.22,14.67,15.22c6.35,0,11.81-3.48,13.51-11.46Z"/><path class="c" d="M1465.36,365.25h-9.01v-3.07c-2.66,2.66-6.21,4.09-10.71,4.09-8.19,0-13.65-5.87-13.65-14.33v-20.75h9.01v18.83c0,4.78,2.73,7.98,6.89,7.98,5.12,0,8.46-3.41,8.46-11.74v-15.08h9.01v34.05Z"/><path class="c" d="M1480.78,354.4c.48,3.48,3.48,4.64,7.03,4.64,3.34,0,5.32-1.5,5.32-3.41,0-1.23-.82-2.46-3.75-3.07l-6.96-1.43c-6.14-1.3-9.62-4.78-9.62-9.69,0-6.55,5.32-11.26,13.92-11.26,8.05,0,13.65,4.16,14.81,10.1l-8.6,1.71c-.34-2.73-2.73-4.71-6.48-4.71s-4.64,1.77-4.64,3.34c0,1.09,.41,2.25,3.07,2.87l8.12,1.77c6.01,1.3,8.94,5.05,8.94,9.62,0,7.51-6.07,11.4-14.94,11.4-7.51,0-14.4-2.93-15.29-10.03l9.08-1.84Z"/><path class="c" d="M1533.12,351.4l8.33,2.12c-1.91,7.78-8.94,12.76-17.06,12.76-9.96,0-18.22-7.3-18.22-18.02s8.26-18.08,18.22-18.08c7.92,0,14.81,4.91,17.06,12.56l-8.67,2.46c-1.23-4.78-4.44-6.76-8.39-6.76-5.66,0-9.49,4.03-9.49,9.83s3.82,9.76,9.49,9.76c3.96,0,7.17-1.91,8.73-6.62Z"/><path class="c" d="M1582.46,348.26c0,10.71-8.39,17.88-18.36,17.88s-18.56-7.17-18.56-17.88,8.39-17.88,18.56-17.88,18.36,7.17,18.36,17.88Zm-8.73,0c0-6.35-4.91-10.17-9.62-10.17s-9.83,3.82-9.83,10.17,4.91,10.17,9.83,10.17,9.62-3.82,9.62-10.17Z"/></g></g><g><path class="c" d="M182.86,153.44l-6.51-4.53,27.15-39.02c1.76-2.3,4.36-3.69,7.13-3.8,2.75-.11,5.43,1.04,7.34,3.16,2.25,2.44,4.9,4.96,6.13,5.87l5.75-.34c.54-.03,1.07-.46,1.39-1.11l.19-.34,24.15-39.22,.1-.13c1.68-2.27,4.19-3.7,6.9-3.91,2.67-.21,5.32,.78,7.28,2.72l.18,.19,18.88,21.34c.17,.15,.36,.27,.55,.33l.17,.06,28.12,10.8c1.36,.47,2.63,1.27,3.67,2.32l.25,.26,25.78,37.68-6.55,4.48-25.32-37c-.14-.11-.29-.19-.44-.24l-.17-.06-28.13-10.8c-1.33-.46-2.57-1.23-3.59-2.24l-.18-.19-18.88-21.34c-.31-.28-.66-.41-1.01-.39-.38,.03-.75,.25-1.05,.61l-23.86,38.76c-1.6,3.12-4.63,5.16-7.96,5.36l-6.69,.4c-1.39,.08-3.49,.21-11.52-8.5-.37-.41-.75-.59-1.16-.58-.4,.02-.79,.24-1.11,.63l-26.98,38.79Zm41.67-38.04h0Z"/><path class="b" d="M377.22,220.42l-40.35-57.74c-1.76-2.52-4.6-3.91-7.53-3.9h.01l-56.26-7.74c-7.35-1.01-14.84-.09-21.73,2.66l-40.61,16.24c-5.27,2.11-7.17,8.66-3.77,13.21,3.62,4.84,9.33,9.68,17.67,9.68,2.86,0,6.03-.57,9.53-1.9,10.07-3.84,18.73-4.95,25.38-4.95,9.12,0,14.45,2.09,14.46,2.09l87.29,61c.52-.57,1.03-1.14,1.54-1.72l13.74-15.66c2.78-3.17,3.04-7.82,.62-11.28Z"/><path class="b" d="M355.72,257.92l-85.47-59.73-.1-.04c-.57-.19-4.41-1.38-10.59-1.38-6.91,0-14.15,1.43-21.53,4.24-4.55,1.73-9.04,2.61-13.37,2.61-5.85,0-11.33-1.57-16.3-4.65-3.73-2.32-7.1-5.47-10.01-9.35-3.64-4.86-4.78-11-3.13-16.85,1.4-4.97,4.61-9.07,8.99-11.59l-4.15-1.71c-1.13-.47-2.32-.69-3.49-.69-2.92,0-5.75,1.4-7.5,3.91l-40.35,57.74c-2.41,3.45-2.16,8.11,.62,11.28l13.74,15.66c8.14,9.27,17.37,17.53,27.48,24.6l74.51,52.07c1.6,1.12,3.43,1.65,5.24,1.65,2.88,0,5.71-1.35,7.5-3.89,2.92-4.15,1.91-9.87-2.24-12.78l-29.21-20.41c-1.82-1.27-2.27-3.81-1-5.63l.75-1.07c.78-1.12,2.05-1.72,3.33-1.72,.8,0,1.61,.24,2.31,.73l36.77,25.7,12.27,8.54c1.59,1.11,3.42,1.64,5.23,1.64,2.89,0,5.73-1.36,7.51-3.9l.39-.56c2.91-4.15,1.9-9.86-2.25-12.76l-49.01-34.25c-1.82-1.27-2.27-3.81-1-5.63l.75-1.07c.78-1.12,2.05-1.72,3.33-1.72,.8,0,1.61,.24,2.31,.73l55.68,38.91c1.6,1.12,3.43,1.65,5.24,1.65,2.89,0,5.73-1.36,7.51-3.9l.41-.58c2.91-4.15,1.9-9.86-2.25-12.76l-55.68-38.91c-1.82-1.27-2.27-3.81-1-5.63l.75-1.07c.78-1.12,2.05-1.72,3.33-1.72,.8,0,1.61,.24,2.31,.73l59.08,41.29c1.88,1.31,4.03,1.94,6.16,1.94,3.4,0,6.74-1.6,8.84-4.59,3.42-4.88,2.23-11.61-2.65-15.02Z"/><path class="b" d="M442.95,121.13c-9.77-24.09-24.12-45.71-42.66-64.25-18.54-18.54-40.15-32.89-64.25-42.66C312.78,4.78,288.19,0,262.97,0c-25.22,0-49.81,4.78-73.08,14.22-24.09,9.77-45.71,24.12-64.25,42.66-18.54,18.54-32.89,40.15-42.66,64.25-9.44,23.27-14.22,47.86-14.22,73.08s4.78,49.81,14.22,73.08c7.54,18.6,17.83,35.72,30.65,51.09l-10.06,10.06-3.13-3.13c-2.02-2.03-5.26-2.18-7.46-.35L13.44,390.95c-16.85,13.98-18.04,39.43-2.55,54.92h0l.24,.24h0c15.49,15.49,40.93,14.3,54.92-2.55l66-79.55c1.83-2.2,1.68-5.44-.35-7.46l-3.71-3.71,9.99-9.99c15.58,13.14,32.97,23.66,51.9,31.34,23.27,9.44,47.86,14.22,73.08,14.22,25.22,0,49.81-4.78,73.08-14.22,24.09-9.77,45.71-24.12,64.25-42.66,18.54-18.54,32.89-40.15,42.66-64.25,9.44-23.27,14.22-47.86,14.22-73.08s-4.78-49.81-14.22-73.08Zm-63.45,189.61c-31.13,31.13-72.51,48.27-116.53,48.27s-85.41-17.14-116.53-48.27c-31.13-31.13-48.27-72.51-48.27-116.53s17.14-85.41,48.27-116.53c31.13-31.13,72.51-48.27,116.53-48.27s85.4,17.14,116.53,48.27c31.13,31.13,48.27,72.51,48.27,116.53s-17.14,85.41-48.27,116.53Z"/><path class="b" d="M391.98,103.95l-50.52,35.3c-3.08,2.15-3.83,6.38-1.68,9.46l52.05,74.48c2.15,3.08,6.39,3.83,9.46,1.68l18.07-12.63c.68-5.96,1.03-11.97,1.03-18.05,0-21.26-4.16-41.87-12.37-61.27-4.34-10.26-9.71-19.94-16.04-28.97Z"/><path class="b" d="M134.1,223.2l52.05-74.48c2.15-3.08,1.4-7.31-1.68-9.46l-50.52-35.3c-6.34,9.04-11.71,18.72-16.04,28.97-8.21,19.4-12.37,40.02-12.37,61.27,0,6.07,.35,12.09,1.03,18.05l18.07,12.63c3.08,2.15,7.31,1.4,9.46-1.68Z"/></g></svg>